<svg width="98" height="34" viewBox="0 0 98 34" fill="none" xmlns="http://www.w3.org/2000/svg">
<path d="M24.0838 8.6578L33.6099 27.7157C34.8235 30.1435 33.0586 33 30.345 33H24.0838M24.0838 8.6578L21.2649 3.0184C19.9197 0.327197 16.0803 0.327199 14.7351 3.01841L2.39008 27.7157C1.17655 30.1435 2.94143 33 5.65496 33H11.9162M24.0838 8.6578L18 14.7434M11.9162 33H24.0838M11.9162 33L5.83249 26.9145M24.0838 33L11.9162 20.8289M18 14.7434L33.5136 30.2615M18 14.7434L11.9162 20.8289M2.48642 30.2615L5.83249 26.9145M5.83249 26.9145L11.9162 20.8289" stroke="url(#paint0_linear_0_1)" stroke-width="2" stroke-linecap="round" stroke-linejoin="round"/>
<path d="M47.848 27V9.12H50.68V27H47.848ZM54.5371 27V9.12H57.1771L63.8971 18.432H62.5771L69.1771 9.12H71.8171V27H69.0091V12.456L70.0651 12.744L63.3211 21.96H63.0331L56.4331 12.744L57.3691 12.456V27H54.5371ZM78.9996 27L74.0796 9.12H77.0796L81.0636 24.6H80.3196L84.4476 9.12H87.3996L91.5276 24.6H90.7596L94.7676 9.12H97.7436L92.8476 27H89.6556L85.5036 11.76H86.3436L82.1676 27H78.9996Z" fill="url(#paint1_linear_0_1)"/>
<defs>
<linearGradient id="paint0_linear_0_1" x1="2" y1="33" x2="34" y2="1" gradientUnits="userSpaceOnUse">
<stop stop-color="#82DBF7"/>
<stop offset="1" stop-color="#B6F09C"/>
</linearGradient>
<linearGradient id="paint1_linear_0_1" x1="46" y1="33" x2="74.3183" y2="-13.9022" gradientUnits="userSpaceOnUse">
<stop stop-color="#82DBF7"/>
<stop offset="1" stop-color="#B6F09C"/>
</linearGradient>
</defs>
</svg>
