<svg width="400" height="400" viewBox="0 0 400 400" fill="none" xmlns="http://www.w3.org/2000/svg">
<path d="M176.937 364.062C160.087 361.662 144.862 357.075 130.712 350.55L131.737 350.975C130.6 350.45 129.275 350.15 127.875 350.15C122.7 350.15 118.5 354.35 118.5 359.525C118.5 363.3 120.737 366.562 123.962 368.05L124.025 368.075C138.637 374.862 155.588 379.95 173.363 382.512L174.35 382.625C174.725 382.687 175.15 382.725 175.587 382.725C175.612 382.725 175.638 382.725 175.65 382.725C180.825 382.725 185.012 378.525 185.012 373.35C185.012 368.625 181.525 364.725 176.975 364.075H176.925L176.937 364.062ZM34.375 200.962C34.35 195.8 30.1625 191.637 25 191.637H24.95C19.7875 191.662 15.625 195.85 15.625 201.012C15.625 201.025 15.625 201.05 15.625 201.062C15.7125 219.562 18.5125 237.387 23.6625 254.187L23.325 252.887C24.525 256.787 28.0875 259.575 32.3125 259.575C32.325 259.575 32.325 259.575 32.3375 259.575C33.2875 259.575 34.2 259.437 35.0625 259.162L35 259.175C38.9 257.975 41.6875 254.4 41.6875 250.175C41.6875 249.225 41.55 248.3 41.275 247.437L41.2875 247.5C36.975 233.587 34.45 217.575 34.375 200.987V200.962ZM29.15 160.775C29.9125 161.012 30.775 161.137 31.6875 161.137C31.7 161.137 31.7125 161.137 31.7375 161.137C36 161.137 39.5875 158.287 40.725 154.4L40.7375 154.337C45.4875 138.012 52.0625 123.762 60.425 110.762L60.0375 111.412C60.95 109.987 61.5 108.25 61.5 106.387C61.5 101.212 57.3 97.0125 52.125 97.0125C48.8125 97.0125 45.9 98.725 44.2375 101.325L44.2125 101.362C35.3375 115.125 28.0125 131 23.05 147.9L22.725 149.2C22.5 149.975 22.3625 150.862 22.3625 151.787C22.3625 156.037 25.2 159.637 29.0875 160.775H29.15ZM267.388 48.6374C282.613 55.5249 295.725 63.925 307.437 73.925L307.212 73.7375C308.837 75.15 310.987 76 313.325 76C318.5 76 322.7 71.8 322.7 66.625C322.7 63.7625 321.413 61.1875 319.388 59.475L319.375 59.4625C306.587 48.5375 291.975 39.1874 276.175 31.9999L275.025 31.525C273.9 31 272.575 30.7 271.187 30.7C266.012 30.7 261.825 34.8874 261.825 40.0624C261.825 43.8749 264.1 47.15 267.362 48.6125L267.425 48.6374H267.388ZM84.4125 77.9625C84.425 77.9625 84.425 77.9625 84.4375 77.9625C86.8 77.9625 88.9625 77.075 90.6125 75.625L90.6 75.6375C101.963 65.5875 114.925 56.9749 128.988 50.2874L129.988 49.8625C133.213 48.3375 135.4 45.1 135.4 41.3625C135.4 36.1875 131.2 31.9875 126.025 31.9875C124.587 31.9875 123.225 32.3125 122 32.8875L122.063 32.8624C105.3 40.7874 90.8625 50.375 78.025 61.725L78.225 61.5499C76.2625 63.2749 75.0375 65.7875 75.0375 68.5875C75.0375 73.7625 79.2375 77.9625 84.4125 77.9625ZM61.0625 290.212C59.3625 287.625 56.475 285.937 53.2 285.937C48.025 285.937 43.825 290.137 43.825 295.312C43.825 297.212 44.3875 298.975 45.3625 300.45L45.3375 300.412C55.225 315.475 66.625 328.437 79.6 339.637L79.8375 339.837C81.475 341.25 83.6125 342.112 85.95 342.112C91.125 342.1 95.3125 337.912 95.3125 332.737C95.3125 329.9 94.0625 327.362 92.075 325.65L92.0625 325.637C80.1875 315.4 69.9375 303.75 61.4375 290.837L61.05 290.212H61.0625ZM367.438 158.2C368.413 158.2 369.35 158.05 370.237 157.762L370.175 157.775C374.05 156.562 376.813 153.012 376.813 148.812C376.813 147.837 376.663 146.887 376.388 146L376.4 146.062C370.787 128.012 363.2 112.287 353.662 97.9749L354.087 98.65C352.387 96.0875 349.513 94.425 346.25 94.425C341.063 94.425 336.862 98.625 336.862 103.812C336.862 105.737 337.438 107.525 338.438 109.012L338.412 108.975C346.612 121.225 353.437 135.337 358.162 150.387L358.475 151.55C359.687 155.425 363.237 158.175 367.425 158.175L367.438 158.2ZM375 189.6C369.725 190.1 365.625 194.5 365.625 199.862C365.625 199.912 365.625 199.962 365.625 200V199.987C365.625 200.062 365.625 200.137 365.625 200.212C365.625 216.737 363.2 232.687 358.687 247.737L358.987 246.575C358.75 247.362 358.612 248.262 358.612 249.187C358.612 253.437 361.425 257.025 365.287 258.2L365.35 258.212C366.138 258.437 367.05 258.575 367.987 258.575C372.225 258.562 375.813 255.762 376.975 251.9L376.988 251.837C381.663 236.35 384.363 218.537 384.363 200.1C384.363 200.062 384.363 200.012 384.363 199.975V197.95C384.275 193.287 380.475 189.55 375.8 189.55C375.512 189.55 375.238 189.562 374.95 189.587H374.988L375 189.6ZM232.638 27.7749C232.688 27.3999 232.725 26.9749 232.725 26.5374C232.725 21.7999 229.2 17.875 224.625 17.2625H224.575C217.2 16.225 208.688 15.6375 200.038 15.6375C190.225 15.6375 180.588 16.4 171.175 17.85L172.225 17.7125C167.662 18.4 164.213 22.2874 164.213 26.9874C164.213 32.1624 168.413 36.3624 173.588 36.3624C174.1 36.3624 174.6 36.3249 175.087 36.2374L175.038 36.25C182.55 35.0625 191.225 34.3874 200.05 34.3874C207.825 34.3874 215.488 34.9125 222.988 35.925L222.112 35.8249C222.45 35.8624 222.85 35.8875 223.25 35.8875C228.013 35.8875 231.95 32.3874 232.65 27.8124L232.663 27.7625L232.638 27.7749ZM269.138 350.562C256.038 356.737 240.85 361.4 224.913 363.8L224 363.912C219.438 364.6 215.975 368.487 215.975 373.187C215.975 378.362 220.175 382.562 225.35 382.562C225.362 382.562 225.4 382.562 225.425 382.562C225.888 382.562 226.338 382.525 226.775 382.462H226.725C245.475 379.65 262.375 374.45 278.087 367.112L276.95 367.587C280.2 366.062 282.413 362.825 282.413 359.075C282.413 353.9 278.213 349.7 273.038 349.7C271.625 349.7 270.288 350.012 269.088 350.575L269.15 350.55L269.138 350.562ZM352.387 286.55C350.962 285.612 349.212 285.062 347.325 285.062C344.025 285.062 341.138 286.775 339.475 289.35L339.45 289.387C330.638 302.975 320.462 314.675 308.862 324.787L308.663 324.962C306.7 326.687 305.463 329.212 305.463 332.012C305.463 337.187 309.663 341.387 314.838 341.387C317.188 341.387 319.325 340.525 320.975 339.1L320.963 339.112C334.1 327.662 345.425 314.637 354.775 300.2L355.212 299.487C356.15 298.062 356.7 296.312 356.7 294.425C356.7 291.125 354.988 288.237 352.413 286.575L352.387 286.55Z" fill="#D9D9D9"/>
<g clip-path="url(#clip0_415_9033)">
<path d="M73 210.5V194.814C73 177.273 79.1563 162.346 91.469 150.033C103.782 137.72 118.709 131.564 136.25 131.564C141.647 131.564 147.382 132.492 153.454 134.347C156.49 119.842 163.827 107.866 175.465 98.421C187.103 88.9757 200.428 84.1687 215.439 84C232.812 84 247.654 90.2407 259.967 102.722C272.28 115.203 278.52 130.046 278.689 147.25C278.689 151.973 277.846 157.37 276.159 163.442C277.34 163.273 278.183 163.189 278.689 163.189C291.676 163.189 302.808 167.827 312.085 177.104C321.362 186.381 326 197.513 326 210.5V226.439C326 239.595 321.362 250.727 312.085 259.835C302.808 268.943 291.676 273.581 278.689 273.75H275.653C277.171 269.533 278.099 265.738 278.436 262.365C278.942 255.45 278.099 248.703 275.906 242.125C273.713 235.547 270.003 229.728 264.774 224.668L233.149 193.043C223.872 183.598 212.656 178.875 199.5 178.875C186.344 178.875 175.212 183.513 166.104 192.79L134.479 224.415C129.419 229.475 125.708 235.378 123.347 242.125C120.986 248.872 120.142 255.703 120.817 262.618C120.986 265.654 121.66 268.943 122.841 272.485C108.504 269.28 96.6133 261.943 87.168 250.474C77.7227 239.005 73 225.68 73 210.5ZM152.189 259.582C151.683 254.522 153.201 250.305 156.743 246.932L188.368 215.307C191.573 212.102 195.283 210.5 199.5 210.5C203.885 210.5 207.596 212.102 210.632 215.307L242.257 246.932C245.799 250.305 247.401 254.522 247.064 259.582C246.895 261.1 246.474 262.618 245.799 264.136C244.618 267.003 242.679 269.365 239.98 271.22C237.281 273.075 234.33 273.919 231.125 273.75H215.439V321.314C215.439 325.699 213.837 329.41 210.632 332.446C207.427 335.482 203.717 337 199.5 337C195.283 337 191.573 335.482 188.368 332.446C185.163 329.41 183.645 325.699 183.814 321.314V273.75H167.875C164.67 273.75 161.803 272.907 159.273 271.22C156.743 269.533 154.719 267.172 153.201 264.136C152.695 262.618 152.358 261.1 152.189 259.582Z" fill="#A95F5F"/>
</g>
<defs>
<clipPath id="clip0_415_9033">
<rect width="253" height="253" fill="white" transform="translate(73 84)"/>
</clipPath>
</defs>
</svg>
